<?xml version="1.0" encoding="utf-8"?>
<!-- Generator: Adobe Illustrator 20.1.0, SVG Export Plug-In . SVG Version: 6.00 Build 0)  -->
<!DOCTYPE svg PUBLIC "-//W3C//DTD SVG 1.1//EN" "http://www.w3.org/Graphics/SVG/1.1/DTD/svg11.dtd">
<svg version="1.1" id="Calque_1" xmlns="http://www.w3.org/2000/svg" xmlns:xlink="http://www.w3.org/1999/xlink" x="0px" y="0px"
	 viewBox="0 0 595.3 841.9" enable-background="new 0 0 595.3 841.9" xml:space="preserve">
<rect x="25.5" y="24.7" fill="#CEE9EB" width="544" height="602.1"/>
<path fill="#F9F197" d="M356.3,133.6c0,34.2-26,62.9-58,62.9s-58-28.7-58-62.9S269,84,301.1,84S356.3,99.3,356.3,133.6z"/>
<rect x="25.7" y="243" fill="#F9F197" width="544.1" height="550.6"/>
<rect x="25.3" y="783.3" fill="#A94E98" width="544.7" height="31.4"/>
<text transform="matrix(1 0 0 1 177.5582 466.3054)" fill="#A94E98" font-family="'CommuneB1San-31'" font-size="66.0355px">Conversation day</text>
<text transform="matrix(1 0 0 1 207.3174 566.1729)"><tspan x="0" y="0" fill="#5D92CD" font-family="'CommuneB1San-31'" font-size="99.313px">WELCOME</tspan><tspan x="1.5" y="85" fill="#5D92CD" font-family="'CommuneB1San-31'" font-size="99.313px">REFUGEES</tspan></text>
<text transform="matrix(1 0 0 1 233.3162 701.8874)" fill="#E55A38" font-family="'CommuneB1San-31'" font-size="45.2366px">City Hall, Leeds</text>
<text transform="matrix(1 0 0 1 178.1983 397.7155)" fill="#A94E98" font-family="'CommuneB1San-31'" font-size="45.2366px">November the 19th from1pm</text>
<text transform="matrix(1 0 0 1 73.9618 533.5133)"><tspan x="0" y="0" fill="#E55A38" font-family="'CommuneB1San-31'" font-size="20.3061px">Talks </tspan><tspan x="-12.9" y="19.5" fill="#E55A38" font-family="'CommuneB1San-31'" font-size="20.3061px">Shared meal </tspan><tspan x="-13.7" y="39" fill="#E55A38" font-family="'CommuneB1San-31'" font-size="20.3061px">Informations </tspan><tspan x="-10.9" y="58.5" fill="#E55A38" font-family="'CommuneB1San-31'" font-size="20.3061px">Workshops</tspan><tspan x="-2.4" y="78" fill="#E55A38" font-family="'CommuneB1San-31'" font-size="20.3061px">Games</tspan></text>
<text transform="matrix(1 0 0 1 504.8391 533.5133)"><tspan x="0" y="0" fill="#E55A38" font-family="'CommuneB1San-31'" font-size="20.3061px">Gigs</tspan><tspan x="-15.7" y="19.5" fill="#E55A38" font-family="'CommuneB1San-31'" font-size="20.3061px">Fund-raising </tspan><tspan x="-18.3" y="39" fill="#E55A38" font-family="'CommuneB1San-31'" font-size="20.3061px">in favor of the </tspan><tspan x="-8.5" y="58.5" fill="#E55A38" font-family="'CommuneB1San-31'" font-size="20.3061px">refugees</tspan><tspan x="-16.7" y="78" fill="#E55A38" font-family="'CommuneB1San-31'" font-size="20.3061px">(garments…) </tspan></text>
<text transform="matrix(1 0 0 1 265.2238 804.1915)" fill="#FFFFFF" font-family="'CommuneB1San-31'" font-size="16.2765px">Refugee Council</text>
<g>
	<g>
		<path fill="#CEE9EB" d="M550.5,801.7l0-0.4l0.3,0l0,0.7l-1.3,0l0-0.5c0-0.7,1.1-0.4,1.1-0.9c0-0.1-0.1-0.2-0.4-0.2
			c-0.3,0-0.4,0.1-0.4,0.4l0,0l-0.3,0l0-0.1c0-0.4,0.2-0.6,0.6-0.6l0.1,0c0.5,0,0.7,0.2,0.7,0.5c0,0.7-1.1,0.4-1.1,0.9l0,0.2
			L550.5,801.7z"/>
		<path fill="#CEE9EB" d="M551,801.4l0-0.7c0-0.4,0.2-0.6,0.6-0.6l0.2,0c0.4,0,0.6,0.2,0.6,0.6l0,0.7c0,0.4-0.2,0.6-0.6,0.6l-0.2,0
			C551.3,802,551,801.8,551,801.4z M552.1,801.4l0-0.6c0-0.3-0.1-0.4-0.4-0.4c-0.4,0-0.4,0.1-0.4,0.4l0,0.6c0,0.3,0.1,0.4,0.4,0.4
			C552.1,801.7,552.1,801.7,552.1,801.4z"/>
		<path fill="#CEE9EB" d="M552.7,802l0-1.6l-0.1,0l0-0.3l0.3,0l0,1.9L552.7,802z"/>
		<path fill="#CEE9EB" d="M553.2,801.5l0-0.8c0-0.4,0.2-0.6,0.6-0.6l0.2,0c0.4,0,0.6,0.2,0.6,0.6l0,0.1l-0.3,0l0,0
			c0-0.3-0.1-0.4-0.4-0.4c-0.4,0-0.4,0.1-0.4,0.4l0,0.5c0-0.1,0.1-0.1,0.3-0.1l0.4,0c0.2,0,0.4,0.2,0.4,0.4c0,0.3-0.2,0.5-0.6,0.5
			l-0.2,0C553.4,802,553.2,801.8,553.2,801.5z M554.3,801.5c0-0.1,0-0.1-0.1-0.1l-0.6,0c-0.1,0-0.1,0.1-0.1,0.1
			c0,0.2,0.1,0.2,0.4,0.2C554.2,801.7,554.3,801.7,554.3,801.5z"/>
	</g>
	<g>
		<path fill="#CEE9EB" d="M550.8,798.5c-0.3-0.4-0.3-1.2-0.3-1.3c0-0.1,0.1-0.2,0.2-0.3c0,0-0.1-0.1-0.1-0.2c-0.5-1.7-0.1-1.9,0.1-2
			c0.1,0,0.3,0,0.4,0.5l0.2,0.9c0,0.1,0,0.1,0.1,0.1c0.1,0,0.1,0,0.1-0.1l0.2-1c0.1-0.4,0.3-0.5,0.4-0.5c0.2,0.1,0.4,0.1,0.2,1.2
			c0,0.1,0,0.1-0.1,0.2c0.1,0,0.2,0.1,0.2,0.3c0-0.1,0.1-0.1,0.2-0.1c0.1,0,0.4,0.2,0.4,0.7c0,0.3-0.1,0.5-0.2,0.6
			c0.1,0.3,0.1,0.7-0.1,1.1C552.5,798.9,551.2,799,550.8,798.5z M550.8,796.8c0.1-0.1,0.2-0.1,0.4-0.2c0.2-0.1,0.5-0.1,0.6,0
			c-0.1-0.3,0-0.5,0.2-0.5c0.1-0.8,0.2-1.1,0-1.1c-0.1,0-0.1,0.1-0.2,0.3l-0.2,0.9c-0.1,0.2-0.2,0.3-0.3,0.3c-0.1,0-0.2,0-0.3-0.3
			l-0.2-0.8c-0.1-0.3-0.1-0.4-0.2-0.3C550.5,795,550.5,795.5,550.8,796.8z M552.8,797.6C552.7,797.6,552.7,797.6,552.8,797.6
			c-0.2,0-0.3-0.1-0.3-0.3c-0.1,0.1-0.2,0.2-0.3,0.2c-0.2,0-0.3-0.2-0.3-0.4c0-0.1,0-0.1,0-0.2c-0.1,0.1-0.2,0.2-0.3,0.3l-0.1,0.1
			c-0.1,0.1-0.2,0.1-0.3-0.1c0.2-0.1,0.7-0.5,0.6-0.6c0-0.1-0.1-0.1-0.5,0.1c-0.4,0.2-0.5,0.3-0.6,0.5c0,0.2,0,0.8,0.2,1.2
			c0.5-0.2,1.3-0.3,1.7,0C552.7,798.2,552.8,797.8,552.8,797.6z M552,798.5c0-0.1,0-0.1-0.2-0.1c-0.2,0-0.2,0.1-0.2,0.1
			c0,0.1,0,0.1,0.2,0.1C552,798.6,552,798.5,552,798.5z M552.3,796.8c0-0.3-0.1-0.6-0.2-0.6c-0.1,0-0.1,0.1-0.1,0.1l0,0.8
			c0,0.1,0.1,0.2,0.2,0.2C552.3,797.4,552.3,797,552.3,796.8z M552.9,796.9c0-0.3-0.1-0.5-0.2-0.5c-0.1,0-0.1,0.1-0.1,0.2l0,0.6
			c0,0.1,0,0.2,0.1,0.2C552.8,797.4,552.9,797.1,552.9,796.9z"/>
	</g>
	<g>
		<path fill="#CEE9EB" d="M555.4,802.1l0-0.3l0.3,0l0,0.3L555.4,802.1z M557.5,802.2c0-0.1,0-0.1-0.1-0.1l-1.5,0l0-0.3l1.5,0
			c0.3,0,0.4,0.2,0.4,0.4L557.5,802.2z"/>
		<path fill="#CEE9EB" d="M555.4,801.5l0-0.3l0.3,0l0,0.3L555.4,801.5z M557.5,801.6c0-0.1,0-0.1-0.1-0.1l-1.5,0l0-0.3l1.5,0
			c0.3,0,0.4,0.2,0.4,0.4L557.5,801.6z"/>
		<path fill="#CEE9EB" d="M555.4,801l0-0.3l1.9,0l0,0.3L555.4,801z"/>
		<path fill="#CEE9EB" d="M555.4,800.4l0-0.3l1.9,0l0,0.3L555.4,800.4z"/>
		<path fill="#CEE9EB" d="M557.3,799.6l0,0.3l-1.3,0l0-0.2l0.2,0c-0.1,0-0.2-0.2-0.2-0.5c0-0.4,0.2-0.6,0.6-0.6l0.8,0l0,0.3l-0.7,0
			c-0.3,0-0.4,0.1-0.4,0.4c0,0.3,0.1,0.4,0.4,0.4L557.3,799.6z"/>
		<path fill="#CEE9EB" d="M557.2,798l0,0.3l-1.3,0l0-0.2l0.2,0c-0.1,0-0.2-0.2-0.2-0.5c0-0.4,0.2-0.6,0.6-0.6l0.8,0l0,0.3l-0.7,0
			c-0.3,0-0.4,0.1-0.4,0.4c0,0.3,0.1,0.4,0.4,0.4L557.2,798z"/>
		<path fill="#CEE9EB" d="M557,796.6l0-0.3l0.3,0l0,0.3L557,796.6z"/>
		<path fill="#CEE9EB" d="M556.7,795.8l0.5,0l0,0.3l-0.4,0l-0.1,0l0,0.1l-0.3,0l0-0.1l-0.1,0l-0.5,0c-0.2,0-0.4-0.2-0.4-0.4l0-0.5
			l0.3,0l0,0.5c0,0.1,0,0.1,0.1,0.1l0.7,0l0-0.6l0.3,0L556.7,795.8z"/>
		<path fill="#CEE9EB" d="M555.9,794.3l0-0.2l0.3,0l0,0.3c0,0.3,0.1,0.4,0.4,0.4l0.7,0l0,0.3l-1.3,0l0-0.2l0.2,0
			C556,794.7,555.9,794.6,555.9,794.3z"/>
	</g>
	<g>
		<path fill="#CEE9EB" d="M548.9,803.6h0.3v0.3c0,0.1,0.1,0.1,0.1,0.1c0.1,0,0.1,0,0.1-0.1v-1.5h0.3v1.5c0,0.2-0.2,0.4-0.4,0.4
			c-0.2,0-0.4-0.1-0.4-0.4V803.6z"/>
		<path fill="#CEE9EB" d="M550.6,804.3c-0.5,0-0.7-0.2-0.7-0.5v-0.3c0-0.4,0.2-0.5,0.7-0.5c0.5,0,0.7,0.2,0.7,0.5v0.3h-1.1v0
			c0,0.2,0.1,0.3,0.4,0.3c0.4,0,0.4,0,0.4-0.1v-0.1h0.3v0.1C551.3,804.1,551.2,804.3,550.6,804.3z M550.2,803.4h0.8v0
			c0-0.2-0.1-0.3-0.4-0.3C550.3,803.1,550.2,803.2,550.2,803.4L550.2,803.4z M550.7,802.4h0.3v0.1l-0.2,0.3h-0.2L550.7,802.4z"/>
		<path fill="#CEE9EB" d="M552.3,802.9h0.2v0.3h-0.3c-0.4,0-0.4,0.1-0.4,0.4v0.7h-0.3v-1.3h0.2l0,0.2
			C551.9,803,552,802.9,552.3,802.9z"/>
		<path fill="#CEE9EB" d="M553.3,804.3c-0.5,0-0.7-0.2-0.7-0.5v-0.3c0-0.4,0.2-0.5,0.7-0.5c0.5,0,0.7,0.2,0.7,0.5v0.3h-1.1v0
			c0,0.2,0.1,0.3,0.4,0.3c0.4,0,0.4,0,0.4-0.1v-0.1h0.3v0.1C554,804.1,553.9,804.3,553.3,804.3z M552.9,803.4h0.8v0
			c0-0.2-0.1-0.3-0.4-0.3C553,803.1,552.9,803.2,552.9,803.4L552.9,803.4z M553.4,802.4h0.3v0.1l-0.2,0.3h-0.2L553.4,802.4z"/>
		<path fill="#CEE9EB" d="M554.8,802.9c0.1,0,0.2,0.1,0.3,0.1c0.1-0.1,0.1-0.1,0.3-0.1c0.2,0,0.3,0.1,0.3,0.3v1.1h-0.3v-1
			c0-0.1-0.1-0.1-0.1-0.1c-0.1,0-0.1,0-0.1,0.1v1h-0.3v-1c0-0.1-0.1-0.1-0.1-0.1c-0.1,0-0.1,0-0.1,0.1v1h-0.3v-1.3h0.2l0,0.1
			C554.6,802.9,554.6,802.9,554.8,802.9z"/>
		<path fill="#CEE9EB" d="M556.7,804.8h-0.3v-0.5c-0.4-0.3-0.5-0.7-0.5-1.1v-0.3h0.3v0.3c0,0.4,0.1,0.6,0.4,0.9
			c0.3-0.2,0.4-0.5,0.4-0.9v-0.3h0.3v0.3c0,0.4-0.1,0.8-0.5,1.1V804.8z"/>
	</g>
	<rect x="548.4" y="804.5" fill="#CEE9EB" width="11.6" height="0.3"/>
	<rect x="548.4" y="802.3" fill="#CEE9EB" width="9.4" height="0.3"/>
	<rect x="548.9" y="799.6" fill="#CEE9EB" width="6.2" height="0.3"/>
	<rect x="557.6" y="793.6" fill="#CEE9EB" width="2.4" height="1.4"/>
	<rect x="548.4" y="793.6" fill="#CEE9EB" width="9.4" height="0.3"/>
	
		<rect x="554.8" y="799.6" transform="matrix(5.180573e-11 -1 1 5.180573e-11 -239.9338 1359.6176)" fill="#CEE9EB" width="10" height="0.3"/>
	
		<rect x="542.9" y="799.1" transform="matrix(4.766593e-11 -1 1 4.766593e-11 -250.6967 1347.7183)" fill="#CEE9EB" width="11.1" height="0.3"/>
	
		<rect x="547.3" y="800.7" transform="matrix(1.814531e-10 -1 1 1.814531e-10 -252.3426 1349.8787)" fill="#CEE9EB" width="2.9" height="0.8"/>
	
		<rect x="552.1" y="799.1" transform="matrix(4.750251e-11 -1 1 4.750251e-11 -241.5235 1356.8915)" fill="#CEE9EB" width="11.1" height="0.3"/>
	
		<rect x="550.5" y="797.9" transform="matrix(6.089713e-11 -1 1 6.089713e-11 -243.1106 1353.0326)" fill="#CEE9EB" width="8.9" height="0.3"/>
	<g>
		<path fill="#CEE9EB" d="M557.6,804.2V804h1.6v-0.6h0.3v0.9H557.6z"/>
		<path fill="#CEE9EB" d="M559.5,802.6c0,0.4-0.1,0.6-0.4,0.6c-0.3,0-0.4-0.2-0.4-0.6c0-0.3,0-0.4,0.2-0.5h-0.3
			c-0.2,0-0.2,0.1-0.2,0.4c0,0.4,0,0.4,0.2,0.4h0.1v0.3h-0.1c-0.3,0-0.4-0.2-0.4-0.7c0-0.5,0.2-0.7,0.5-0.7h0.9v0.2l-0.2,0
			C559.4,802.2,559.5,802.3,559.5,802.6z M559.1,802.1c-0.1,0-0.1,0.1-0.1,0.5c0,0.3,0,0.3,0.1,0.3c0.1,0,0.1-0.1,0.1-0.3
			C559.2,802.2,559.2,802.1,559.1,802.1z"/>
		<path fill="#CEE9EB" d="M559.4,801.3v0.3h-1.3v-0.2l0.2,0c-0.1,0-0.2-0.2-0.2-0.5c0-0.4,0.2-0.6,0.6-0.6h0.8v0.3h-0.7
			c-0.3,0-0.4,0.1-0.4,0.4c0,0.4,0.1,0.4,0.4,0.4H559.4z"/>
		<path fill="#CEE9EB" d="M558.1,799.3c0-0.3,0.1-0.5,0.2-0.5h-0.8v-0.3h1.9v0.2l-0.2,0c0.1,0,0.2,0.2,0.2,0.5
			c0,0.4-0.2,0.6-0.6,0.6h-0.2C558.3,799.9,558.1,799.7,558.1,799.3z M559.2,799.3c0-0.4-0.1-0.4-0.4-0.4h-0.1
			c-0.3,0-0.4,0.1-0.4,0.4c0,0.3,0.1,0.4,0.4,0.4h0.1C559.1,799.7,559.2,799.6,559.2,799.3z"/>
		<path fill="#CEE9EB" d="M559.5,797.6c0,0.5-0.2,0.7-0.5,0.7h-0.3c-0.4,0-0.5-0.2-0.5-0.7c0-0.5,0.2-0.7,0.5-0.7h0.3v1.1h0
			c0.2,0,0.3-0.1,0.3-0.4s0-0.4-0.1-0.4H559V797h0.1C559.3,797,559.5,797.1,559.5,797.6z M558.6,798v-0.8h0c-0.2,0-0.3,0.1-0.3,0.4
			S558.4,798,558.6,798L558.6,798z"/>
		<path fill="#CEE9EB" d="M559.5,796c0,0.5-0.1,0.7-0.4,0.7H559v-0.3h0.1c0.1,0,0.1-0.1,0.1-0.4s0-0.4-0.1-0.4
			c-0.1,0-0.1,0.2-0.2,0.4c-0.1,0.5-0.2,0.7-0.4,0.7c-0.3,0-0.4-0.2-0.4-0.7c0-0.5,0.1-0.7,0.4-0.7h0.1v0.3h-0.1
			c-0.1,0-0.1,0.1-0.1,0.4s0,0.4,0.1,0.4s0.1-0.2,0.2-0.4c0.1-0.5,0.2-0.7,0.4-0.7C559.3,795.3,559.5,795.5,559.5,796z"/>
	</g>
</g>
<path fill="#E55A38" d="M348.5,336.8c0-28,0.7-61.8,0.7-61.8l3.1-2.6c0,0,71.9,56.2,81.1,64.1c4.5,11.8,12,25.7,15.4,29.3l6-0.8
	c-0.9-2.2-1.7-5.9-1.3-9.7c1.8,3.1,3.8,6.2,7.1,8.5l5.9-3.2c-1.4-1.6-1.7-5.5-1.3-9.4c1.7,3.1,4.7,6.8,7.3,8.5l6-5.4
	c-4.9-5.8-10.1-17.3-10.8-25c1.8-4.1,10.8-17.2,10.8-17.2l-4.3-2.9l-17,5.8c0,0-85.9-84.3-94.3-91.4c-8.4-7.1-46.2-23.4-46.2-23.4
	l0.3-7.3c0,0,12-5.3,16.8-11.7c7.2-9.8,2.9-50.8-6.5-63.7c-7.3-10.1-41.5-13.3-52.6-1.4c-11,11.8-19.2,50.3-17.4,58.5
	c1.8,8.2,15.8,17.7,15.8,17.7v10.2c0,0-40.7,12.7-50.8,17.1c-10,4.4-96.4,82.9-96.4,82.9l-15-9.1l-4.7,3.5c0,0,9.9,11.7,8.4,19
	c-1.5,7.3-10.6,22.8-15.3,27.3l5.7,5.8l7.8-8.1l-1.8,9.3l6.6,4.1l6.7-8.6l-1.9,9.6l6,1.2c5.4-5.3,10.5-14.8,14.1-27
	c9.1-6.3,77.8-58.5,77.8-58.5l4.7,4.4c0,0,0,37.3,0,65.4"/>
<polygon fill="#FFFFFF" points="301.1,145.9 305.3,162.4 298.3,163.5 298.3,146.7 "/>
<path fill="#FFFFFF" d="M278.4,168.2c13.7,3.8,34.1,3.5,39.5,0c-5.9,7.7-13,9.8-19.8,9.8C291.5,178,281.8,171.7,278.4,168.2z"/>
<g>
	<defs>
		<rect id="SVGID_1_" x="25.4" y="183.2" width="544.3" height="214.5"/>
	</defs>
	<clipPath id="SVGID_2_">
		<use xlink:href="#SVGID_1_"  overflow="visible"/>
	</clipPath>
	<g clip-path="url(#SVGID_2_)">
		<path fill="#5D92CD" d="M575.9,218.6c-0.9,0-79.5,99.3-79.5,99.3s-14.4,15.9-16.8,22.3c0.6,0,4.3,2.7,4.3,2.7l4.6-4.3l-0.6,7
			l4.9,2.7l3.9-6.5l1,8.6l6.3,3.1c1.6-10.1,5.5-18.8,9-22.3c0,0.3,10.4,12.5,10.4,12.5l3.7-3.4l-3.7-17.7l55.8-47.5"/>
		<path fill="#5D92CD" d="M2.5,201.8c0.9,0,79.5,99.3,79.5,99.3s14.4,15.9,16.8,22.3c-0.6,0-4.3,2.7-4.3,2.7l-4.6-4.3l0.6,7
			l-4.9,2.7l-3.9-6.5l-1,8.6l-6.3,3.1c-1.6-10.1-5.5-18.8-9-22.3c0,0.3-10.4,12.5-10.4,12.5l-3.7-3.4l3.7-17.7l-55.8-47.5"/>
	</g>
</g>
<circle fill="#FFFFFF" cx="318" cy="151" r="6.7"/>
<circle fill="#FFFFFF" cx="282.5" cy="151" r="6.7"/>
<circle fill="#A94E98" cx="282.5" cy="151" r="2.6"/>
<circle fill="#A94E98" cx="318" cy="151" r="2.6"/>
</svg>
