<svg id="Calque_1" data-name="Calque 1" xmlns="http://www.w3.org/2000/svg" xmlns:xlink="http://www.w3.org/1999/xlink" viewBox="0 0 595.28 841.89"><defs><style>.cls-1{fill:none;}.cls-2{fill:#cee9eb;}.cls-3{fill:#f9f197;}.cls-4,.cls-5,.cls-8{fill:#a94e98;}.cls-5{font-size:66.04px;}.cls-10,.cls-5,.cls-6,.cls-7,.cls-8,.cls-9{font-family:CommuneB1San-31, Commune B1San;}.cls-6{font-size:99.31px;}.cls-14,.cls-6{fill:#5d92cd;}.cls-7,.cls-8{font-size:45.24px;}.cls-11,.cls-7,.cls-9{fill:#e55a38;}.cls-9{font-size:20.31px;}.cls-10{font-size:16.28px;}.cls-10,.cls-12{fill:#fff;}.cls-13{clip-path:url(#clip-path);}</style><clipPath id="clip-path"><rect class="cls-1" x="25.38" y="183.23" width="544.29" height="214.49"/></clipPath></defs><title>Plan de travail 3</title><rect class="cls-2" x="25.53" y="24.67" width="544" height="602.15"/><path class="cls-3" d="M356.32,133.59c0,34.24-26,62.91-58,62.91s-58-28.66-58-62.91S269,84,301.07,84,356.32,99.35,356.32,133.59Z"/><rect class="cls-3" x="25.68" y="243.04" width="544.12" height="550.59"/><rect class="cls-4" x="25.28" y="783.29" width="544.72" height="31.45"/><text class="cls-5" transform="translate(154.25 466.31)">APRÈS-MIDI D&apos;ÉCHANGE</text><text class="cls-6" transform="translate(197.83 566.17)">BIENVENUE<tspan x="-50.35" y="85.03">AUX RÉFUGIÉ.E.S</tspan></text><text class="cls-7" transform="translate(177.81 701.89)">Maison Saint-Joseph - Allex</text><text class="cls-8" transform="translate(177.09 397.72)">19 novembre à partir de 13 h</text><text class="cls-9" transform="translate(57.86 533.51)">Tables rondes<tspan x="-1.6" y="19.49">Goûter partagé</tspan><tspan x="2.37" y="38.99">Informations</tspan><tspan x="11.53" y="58.48">Ateliers</tspan><tspan x="16.98" y="77.98">Jeux</tspan></text><text class="cls-9" transform="translate(498.32 533.51)">Concert<tspan x="-0.68" y="19.49">Collecte</tspan><tspan x="-21.86" y="38.99">pour les réfugié.e.s</tspan><tspan x="-22.28" y="58.48">(vêtements d’hiver,</tspan><tspan x="-7.71" y="77.98">vaisselle...)</tspan></text><text class="cls-10" transform="translate(223.64 804.19)">Collectif fraternel de soutien au CAO d&apos;Allex</text><path class="cls-2" d="M550.5,801.75v-.4h.27V802h-1.35v-.51c0-.7,1.07-.41,1.07-.9,0-.13-.06-.22-.41-.21s-.4.06-.4.38v0h-.27v-.08a.53.53,0,0,1,.59-.6h.08c.51,0,.67.18.68.51,0,.7-1.07.41-1.07.9v.22Z"/><path class="cls-2" d="M551,801.42v-.7a.53.53,0,0,1,.59-.6h.16a.53.53,0,0,1,.6.59v.7a.53.53,0,0,1-.59.6h-.16A.53.53,0,0,1,551,801.42Zm1.08-.06v-.59c0-.32-.06-.38-.41-.37s-.4.06-.4.38v.59c0,.32.06.38.41.37S552.12,801.69,552.12,801.36Z"/><path class="cls-2" d="M552.66,802v-1.62h-.08l0-.27h.32V802Z"/><path class="cls-2" d="M553.2,801.54v-.83a.53.53,0,0,1,.59-.6h.16a.53.53,0,0,1,.6.59v.08h-.27v0c0-.32-.08-.38-.41-.37s-.4.06-.4.38v.51c0-.09.13-.15.3-.15h.4a.4.4,0,0,1,.41.4c0,.3-.21.47-.62.48h-.16C553.41,802,553.2,801.81,553.2,801.54Zm1.1,0c0-.08,0-.13-.14-.13h-.57c-.11,0-.13.05-.13.14s.06.2.41.2S554.3,801.69,554.3,801.52Z"/><path class="cls-2" d="M550.83,798.55a2.58,2.58,0,0,1-.3-1.35.61.61,0,0,1,.15-.3.36.36,0,0,1-.1-.2c-.46-1.74-.12-1.93.07-2s.29,0,.4.47l.24.92c0,.08,0,.11.08.11s.05,0,.08-.11l.23-1c.1-.45.26-.48.39-.45s.42.13.22,1.19a.32.32,0,0,1-.07.16.51.51,0,0,1,.25.31.19.19,0,0,1,.19-.13c.13,0,.4.16.4.68a1,1,0,0,1-.17.61,1.43,1.43,0,0,1-.11,1.08C552.5,798.85,551.18,799,550.83,798.55Zm0-1.78a2.43,2.43,0,0,1,.41-.21.78.78,0,0,1,.6,0c-.07-.3,0-.47.2-.51.14-.77.16-1.06,0-1.12s-.13.05-.21.32l-.23.93c-.05.24-.16.27-.26.27s-.21,0-.29-.32l-.22-.82c-.08-.26-.11-.37-.19-.34S550.55,795.47,550.84,796.77Zm1.91.85h-.07c-.14,0-.22-.08-.25-.26a.34.34,0,0,1-.28.21c-.24,0-.34-.18-.35-.39a.64.64,0,0,1,0-.2,1.76,1.76,0,0,1-.33.28l-.08.05a.17.17,0,0,1-.29-.05c.21-.13.74-.45.63-.59s-.13-.08-.48.08-.53.29-.55.45a2.65,2.65,0,0,0,.19,1.16,1.85,1.85,0,0,1,1.74,0A3.68,3.68,0,0,0,552.75,797.62Zm-.7.86c0-.05,0-.11-.19-.1s-.24.05-.24.11,0,.11.24.1S552,798.54,552,798.49Zm.28-1.72c0-.29-.11-.55-.24-.55s-.11.05-.1.13v.85c0,.11.05.18.16.18S552.33,797,552.33,796.77Zm.53.13c0-.26-.11-.48-.21-.47s-.1.13-.1.24v.56c0,.11,0,.21.13.21S552.86,797.11,552.86,796.89Z"/><path class="cls-2" d="M555.38,802.06v-.3h.3v.3Zm2.16.11c0-.09,0-.13-.14-.13h-1.48v-.27h1.48a.37.37,0,0,1,.41.4Z"/><path class="cls-2" d="M555.38,801.52v-.3h.3v.3Zm2.16.11c0-.09,0-.13-.14-.13h-1.48v-.27h1.48a.37.37,0,0,1,.41.4Z"/><path class="cls-2" d="M555.38,801v-.27h1.89V801Z"/><path class="cls-2" d="M555.37,800.43v-.27h1.89v.27Z"/><path class="cls-2" d="M557.25,799.61v.27h-1.35v-.24l.22,0c-.13,0-.24-.17-.25-.5a.52.52,0,0,1,.59-.6h.78v.27h-.7c-.32,0-.4.11-.4.41s.14.4.41.4Z"/><path class="cls-2" d="M557.24,798v.27H555.9V798l.22,0c-.13,0-.24-.17-.25-.5a.52.52,0,0,1,.59-.6h.78v.27h-.7c-.32,0-.4.11-.4.41s.14.4.41.4Z"/><path class="cls-2" d="M557,796.65v-.27h.27v.27Z"/><path class="cls-2" d="M556.69,795.84h.54v.27h-.4l-.14,0v.09h-.27v-.09l-.13,0h-.54a.38.38,0,0,1-.41-.4v-.54h.27v.54c0,.08,0,.13.14.13h.67v-.61h.27Z"/><path class="cls-2" d="M555.87,794.28v-.19h.27v.27c0,.35.11.4.38.4h.7V795h-1.35v-.24l.22,0C556,794.74,555.87,794.61,555.87,794.28Z"/><path class="cls-2" d="M548.9,803.57h.27v.32c0,.11.05.11.13.11s.13,0,.13-.13v-1.51h.27v1.51a.4.4,0,0,1-.4.4.36.36,0,0,1-.4-.38Z"/><path class="cls-2" d="M550.65,804.27c-.48,0-.67-.19-.67-.54v-.32c0-.35.19-.54.67-.54s.67.19.67.54v.3h-1.08v0c0,.22.05.27.4.27s.4,0,.4-.11v-.05h.27v.05C551.32,804.13,551.16,804.27,550.65,804.27Zm-.4-.83h.81v0c0-.22-.05-.27-.4-.27s-.4.05-.4.27Zm.44-1.08H551v.13l-.19.27h-.19Z"/><path class="cls-2" d="M552.35,802.89h.19v.27h-.27c-.35,0-.4.11-.4.38v.7h-.27v-1.35h.24l0,.22C551.89,803,552,802.89,552.35,802.89Z"/><path class="cls-2" d="M553.34,804.27c-.48,0-.67-.19-.67-.54v-.32c0-.35.19-.54.67-.54s.67.19.67.54v.3h-1.08v0c0,.22.05.27.4.27s.4,0,.4-.11v-.05H554v.05C554,804.13,553.86,804.27,553.34,804.27Zm-.4-.83h.81v0c0-.22-.05-.27-.4-.27s-.4.05-.4.27Zm.44-1.08h.27v.13l-.19.27h-.19Z"/><path class="cls-2" d="M554.77,802.87a.32.32,0,0,1,.28.15.27.27,0,0,1,.26-.15.31.31,0,0,1,.32.32v1.05h-.27v-1c0-.11-.05-.13-.13-.13s-.13,0-.13.13v1h-.27v-1c0-.11-.05-.13-.13-.13s-.13,0-.13.13v1h-.27v-1.35h.24V803C554.57,802.92,554.64,802.87,554.77,802.87Z"/><path class="cls-2" d="M556.71,804.78h-.27v-.54a1.17,1.17,0,0,1-.54-1.08v-.27h.27v.27a.53.53,0,1,0,.81,0v-.27h.27v.27a1.17,1.17,0,0,1-.54,1.08Z"/><rect class="cls-2" x="548.38" y="804.52" width="11.59" height="0.26"/><rect class="cls-2" x="548.38" y="802.32" width="9.43" height="0.26"/><rect class="cls-2" x="548.9" y="799.65" width="6.19" height="0.26"/><rect class="cls-2" x="557.56" y="793.64" width="2.42" height="1.39"/><rect class="cls-2" x="548.38" y="793.64" width="9.43" height="0.26"/><rect class="cls-2" x="554.84" y="799.65" width="10.01" height="0.26" transform="translate(-239.93 1359.62) rotate(-90)"/><rect class="cls-2" x="542.94" y="799.08" width="11.14" height="0.26" transform="translate(-250.7 1347.72) rotate(-90)"/><rect class="cls-2" x="547.3" y="800.72" width="2.93" height="0.77" transform="translate(-252.34 1349.88) rotate(-90)"/><rect class="cls-2" x="552.11" y="799.08" width="11.14" height="0.26" transform="translate(-241.52 1356.89) rotate(-90)"/><rect class="cls-2" x="550.53" y="797.94" width="8.87" height="0.26" transform="translate(-243.11 1353.03) rotate(-90)"/><path class="cls-2" d="M557.56,804.25V804h1.62v-.61h.27v.88Z"/><path class="cls-2" d="M559.47,802.6c0,.4-.11.59-.42.59s-.42-.19-.42-.59,0-.43.19-.51h-.27c-.16,0-.22.05-.22.4s0,.4.16.4h.05v.27h-.05c-.27,0-.43-.16-.43-.67s.19-.67.48-.67h.89V802l-.19,0C559.41,802.16,559.47,802.32,559.47,802.6Zm-.42-.51c-.11,0-.15.08-.15.51,0,.27,0,.32.15.32s.15-.05.15-.32C559.2,802.17,559.16,802.09,559.05,802.09Z"/><path class="cls-2" d="M559.44,801.28v.27h-1.35v-.24h.22c-.13,0-.24-.17-.24-.5a.52.52,0,0,1,.59-.59h.78v.27h-.7c-.32,0-.4.11-.4.4s.13.4.4.4Z"/><path class="cls-2" d="M558.07,799.34c0-.32.11-.46.24-.48h-.75v-.27h1.89v.24h-.22c.13,0,.24.16.24.5a.52.52,0,0,1-.59.59h-.22A.52.52,0,0,1,558.07,799.34Zm1.13-.08c0-.35-.13-.4-.4-.4h-.05c-.27,0-.4.05-.4.4s.08.4.4.4h.05C559.12,799.66,559.2,799.56,559.2,799.26Z"/><path class="cls-2" d="M559.47,797.64c0,.48-.19.67-.54.67h-.32c-.35,0-.54-.19-.54-.67s.19-.67.54-.67h.3V798h0c.22,0,.27-.05.27-.4s0-.4-.11-.4H559V797h.05C559.33,797,559.47,797.13,559.47,797.64Zm-.83.4v-.81h0c-.22,0-.27.05-.27.4s.05.4.27.4Z"/><path class="cls-2" d="M559.47,796c0,.51-.13.67-.38.67H559v-.27h.05c.11,0,.13-.05.13-.4s0-.43-.13-.43-.13.16-.16.43c-.05.54-.16.7-.4.7s-.43-.22-.43-.7.13-.67.38-.67h.08v.27h-.05c-.11,0-.13.05-.13.4s0,.43.13.43.13-.16.16-.43c.05-.54.16-.7.4-.7S559.47,795.54,559.47,796Z"/><path class="cls-11" d="M348.52,336.81c0-28,.7-61.85.7-61.85l3.12-2.62s71.9,56.21,81.14,64.1c4.47,11.76,12,25.7,15.41,29.26l6-.82a22.16,22.16,0,0,1-1.32-9.66c1.81,3.15,3.75,6.23,7.09,8.5l5.93-3.19c-1.38-1.59-1.73-5.47-1.28-9.36a27.73,27.73,0,0,0,7.31,8.54l6-5.44c-4.88-5.84-10.13-17.26-10.78-25,1.77-4.08,10.78-17.19,10.78-17.19l-4.3-2.91-17,5.81s-85.95-84.3-94.31-91.35S317,200.21,317,200.21l.26-7.3s12-5.32,16.79-11.73c7.24-9.76,2.9-50.81-6.47-63.69-7.31-10.05-41.51-13.25-52.56-1.37s-19.19,50.27-17.37,58.5,15.83,17.66,15.83,17.66v10.21s-40.73,12.72-50.78,17.07-96.4,82.9-96.4,82.9l-15-9.13-4.7,3.55s9.9,11.73,8.38,19-10.57,22.84-15.34,27.26l5.69,5.78,7.8-8.1-1.82,9.27,6.65,4.09,6.66-8.63-1.88,9.57,6,1.17c5.41-5.26,10.46-14.77,14.13-27,9.05-6.29,77.81-58.47,77.81-58.47l4.65,4.38s0,37.32,0,65.35"/><polygon class="cls-12" points="301.07 145.85 305.34 162.4 298.32 163.5 298.32 146.67 301.07 145.85"/><path class="cls-12" d="M278.43,168.17c13.75,3.83,34.06,3.51,39.54,0-5.94,7.72-13,9.83-19.77,9.83S281.84,171.68,278.43,168.17Z"/><g class="cls-13"><path class="cls-14" d="M575.93,218.57c-.91,0-79.54,99.32-79.54,99.32S482,333.81,479.59,340.2c.61,0,4.3,2.67,4.3,2.67l4.57-4.27-.61,7,4.87,2.74,3.88-6.47,1,8.61,6.27,3.14c1.57-10.14,5.45-18.75,9-22.33,0,.3,10.36,12.49,10.36,12.49l3.66-3.35-3.66-17.67L579,275.24"/><path class="cls-14" d="M2.46,201.75c.91,0,79.54,99.32,79.54,99.32S96.35,317,98.79,323.39c-.61,0-4.3,2.67-4.3,2.67l-4.57-4.27.61,7-4.87,2.74-3.88-6.47-1,8.61-6.27,3.14c-1.57-10.14-5.45-18.75-9-22.33,0,.3-10.36,12.49-10.36,12.49l-3.66-3.35,3.66-17.67L-.59,258.42"/></g><circle class="cls-12" cx="317.98" cy="151" r="6.67"/><circle class="cls-12" cx="282.53" cy="151" r="6.67"/><circle class="cls-4" cx="282.53" cy="151" r="2.57"/><circle class="cls-4" cx="317.98" cy="151" r="2.57"/></svg>